<svg xmlns="http://www.w3.org/2000/svg" viewBox="0 0 1040 1040" width="1040" height="1040" role="img" aria-label="The Champagne Method emotion wheel: eight families of feeling in three rings of increasing precision">
<title>The emotion wheel — The Champagne Method</title>
<defs><radialGradient id="ground" cx="50%" cy="50%" r="70%"><stop offset="0%" stop-color="#2d1155"/><stop offset="100%" stop-color="#0b1428"/></radialGradient></defs>
<rect width="1040" height="1040" fill="url(#ground)"/>
<path d="M 520.00 520.00 L 520.00 330.00 A 190.00 190.00 0 0 1 654.35 385.65 Z" fill="#3FE0C5" stroke="#160A33" stroke-width="2"/>
<text x="565.92" y="409.13" transform="rotate(-67.50 565.92 409.13)" font-size="27" font-weight="600" fill="#160A33" text-anchor="middle" dominant-baseline="central" font-family="Outfit, Segoe UI, sans-serif">Joyful</text>
<path d="M 520.00 184.00 A 336.00 336.00 0 0 1 606.96 195.45 L 569.18 336.47 A 190.00 190.00 0 0 0 520.00 330.00 Z" fill="#7ce5d6" stroke="#160A33" stroke-width="1.5"/>
<text x="554.33" y="259.25" transform="rotate(-82.50 554.33 259.25)" font-size="21" font-weight="500" fill="#160A33" text-anchor="middle" dominant-baseline="central" font-family="Outfit, Segoe UI, sans-serif">Content</text>
<path d="M 520.00 44.00 A 476.00 476.00 0 0 1 582.13 48.07 L 563.86 186.87 A 336.00 336.00 0 0 0 520.00 184.00 Z" fill="#afe9e4" stroke="#160A33" stroke-width="1"/>
<text x="546.55" y="114.87" transform="rotate(-86.25 546.55 114.87)" font-size="19" font-weight="400" fill="#160A33" text-anchor="middle" dominant-baseline="central" font-family="Outfit, Segoe UI, sans-serif">Satisfied</text>
<path d="M 582.13 48.07 A 476.00 476.00 0 0 1 643.20 60.22 L 606.96 195.45 A 336.00 336.00 0 0 0 563.86 186.87 Z" fill="#afe9e4" stroke="#160A33" stroke-width="1"/>
<text x="599.21" y="121.80" transform="rotate(-78.75 599.21 121.80)" font-size="19" font-weight="400" fill="#160A33" text-anchor="middle" dominant-baseline="central" font-family="Outfit, Segoe UI, sans-serif">Grateful</text>
<path d="M 606.96 195.45 A 336.00 336.00 0 0 1 688.00 229.02 L 615.00 355.46 A 190.00 190.00 0 0 0 569.18 336.47 Z" fill="#7ce5d6" stroke="#160A33" stroke-width="1.5"/>
<text x="620.65" y="277.02" transform="rotate(-67.50 620.65 277.02)" font-size="21" font-weight="500" fill="#160A33" text-anchor="middle" dominant-baseline="central" font-family="Outfit, Segoe UI, sans-serif">Excited</text>
<path d="M 643.20 60.22 A 476.00 476.00 0 0 1 702.16 80.23 L 648.58 209.58 A 336.00 336.00 0 0 0 606.96 195.45 Z" fill="#afe9e4" stroke="#160A33" stroke-width="1"/>
<text x="650.50" y="135.55" transform="rotate(-71.25 650.50 135.55)" font-size="19" font-weight="400" fill="#160A33" text-anchor="middle" dominant-baseline="central" font-family="Outfit, Segoe UI, sans-serif">Eager</text>
<path d="M 702.16 80.23 A 476.00 476.00 0 0 1 758.00 107.77 L 688.00 229.02 A 336.00 336.00 0 0 0 648.58 209.58 Z" fill="#afe9e4" stroke="#160A33" stroke-width="1"/>
<text x="699.57" y="155.87" transform="rotate(-63.75 699.57 155.87)" font-size="19" font-weight="400" fill="#160A33" text-anchor="middle" dominant-baseline="central" font-family="Outfit, Segoe UI, sans-serif">Playful</text>
<path d="M 688.00 229.02 A 336.00 336.00 0 0 1 757.59 282.41 L 654.35 385.65 A 190.00 190.00 0 0 0 615.00 355.46 Z" fill="#7ce5d6" stroke="#160A33" stroke-width="1.5"/>
<text x="680.10" y="311.35" transform="rotate(-52.50 680.10 311.35)" font-size="21" font-weight="500" fill="#160A33" text-anchor="middle" dominant-baseline="central" font-family="Outfit, Segoe UI, sans-serif">Loving</text>
<path d="M 758.00 107.77 A 476.00 476.00 0 0 1 809.77 142.36 L 724.54 253.43 A 336.00 336.00 0 0 0 688.00 229.02 Z" fill="#afe9e4" stroke="#160A33" stroke-width="1"/>
<text x="745.56" y="182.42" transform="rotate(-56.25 745.56 182.42)" font-size="19" font-weight="400" fill="#160A33" text-anchor="middle" dominant-baseline="central" font-family="Outfit, Segoe UI, sans-serif">Tender</text>
<path d="M 809.77 142.36 A 476.00 476.00 0 0 1 856.58 183.42 L 757.59 282.41 A 336.00 336.00 0 0 0 724.54 253.43 Z" fill="#afe9e4" stroke="#160A33" stroke-width="1"/>
<text x="787.69" y="214.75" transform="rotate(-48.75 787.69 214.75)" font-size="19" font-weight="400" fill="#160A33" text-anchor="middle" dominant-baseline="central" font-family="Outfit, Segoe UI, sans-serif">Connected</text>
<path d="M 520.00 520.00 L 654.35 385.65 A 190.00 190.00 0 0 1 710.00 520.00 Z" fill="#E8CBA0" stroke="#160A33" stroke-width="2"/>
<text x="630.87" y="474.08" transform="rotate(-22.50 630.87 474.08)" font-size="27" font-weight="600" fill="#160A33" text-anchor="middle" dominant-baseline="central" font-family="Outfit, Segoe UI, sans-serif">Powerful</text>
<path d="M 757.59 282.41 A 336.00 336.00 0 0 1 810.98 352.00 L 684.54 425.00 A 190.00 190.00 0 0 0 654.35 385.65 Z" fill="#ecd7be" stroke="#160A33" stroke-width="1.5"/>
<text x="728.65" y="359.90" transform="rotate(-37.50 728.65 359.90)" font-size="21" font-weight="500" fill="#160A33" text-anchor="middle" dominant-baseline="central" font-family="Outfit, Segoe UI, sans-serif">Confident</text>
<path d="M 856.58 183.42 A 476.00 476.00 0 0 1 897.64 230.23 L 786.57 315.46 A 336.00 336.00 0 0 0 757.59 282.41 Z" fill="#efe1d6" stroke="#160A33" stroke-width="1"/>
<text x="825.25" y="252.31" transform="rotate(-41.25 825.25 252.31)" font-size="19" font-weight="400" fill="#160A33" text-anchor="middle" dominant-baseline="central" font-family="Outfit, Segoe UI, sans-serif">Capable</text>
<path d="M 897.64 230.23 A 476.00 476.00 0 0 1 932.23 282.00 L 810.98 352.00 A 336.00 336.00 0 0 0 786.57 315.46 Z" fill="#efe1d6" stroke="#160A33" stroke-width="1"/>
<text x="857.58" y="294.44" transform="rotate(-33.75 857.58 294.44)" font-size="19" font-weight="400" fill="#160A33" text-anchor="middle" dominant-baseline="central" font-family="Outfit, Segoe UI, sans-serif">Assured</text>
<path d="M 810.98 352.00 A 336.00 336.00 0 0 1 844.55 433.04 L 703.53 470.82 A 190.00 190.00 0 0 0 684.54 425.00 Z" fill="#ecd7be" stroke="#160A33" stroke-width="1.5"/>
<text x="762.98" y="419.35" transform="rotate(-22.50 762.98 419.35)" font-size="21" font-weight="500" fill="#160A33" text-anchor="middle" dominant-baseline="central" font-family="Outfit, Segoe UI, sans-serif">Proud</text>
<path d="M 932.23 282.00 A 476.00 476.00 0 0 1 959.77 337.84 L 830.42 391.42 A 336.00 336.00 0 0 0 810.98 352.00 Z" fill="#efe1d6" stroke="#160A33" stroke-width="1"/>
<text x="884.13" y="340.43" transform="rotate(-26.25 884.13 340.43)" font-size="19" font-weight="400" fill="#160A33" text-anchor="middle" dominant-baseline="central" font-family="Outfit, Segoe UI, sans-serif">Respected</text>
<path d="M 959.77 337.84 A 476.00 476.00 0 0 1 979.78 396.80 L 844.55 433.04 A 336.00 336.00 0 0 0 830.42 391.42 Z" fill="#efe1d6" stroke="#160A33" stroke-width="1"/>
<text x="904.45" y="389.50" transform="rotate(-18.75 904.45 389.50)" font-size="19" font-weight="400" fill="#160A33" text-anchor="middle" dominant-baseline="central" font-family="Outfit, Segoe UI, sans-serif">Valued</text>
<path d="M 844.55 433.04 A 336.00 336.00 0 0 1 856.00 520.00 L 710.00 520.00 A 190.00 190.00 0 0 0 703.53 470.82 Z" fill="#ecd7be" stroke="#160A33" stroke-width="1.5"/>
<text x="780.75" y="485.67" transform="rotate(-7.50 780.75 485.67)" font-size="21" font-weight="500" fill="#160A33" text-anchor="middle" dominant-baseline="central" font-family="Outfit, Segoe UI, sans-serif">Free</text>
<path d="M 979.78 396.80 A 476.00 476.00 0 0 1 991.93 457.87 L 853.13 476.14 A 336.00 336.00 0 0 0 844.55 433.04 Z" fill="#efe1d6" stroke="#160A33" stroke-width="1"/>
<text x="918.20" y="440.79" transform="rotate(-11.25 918.20 440.79)" font-size="19" font-weight="400" fill="#160A33" text-anchor="middle" dominant-baseline="central" font-family="Outfit, Segoe UI, sans-serif">Open</text>
<path d="M 991.93 457.87 A 476.00 476.00 0 0 1 996.00 520.00 L 856.00 520.00 A 336.00 336.00 0 0 0 853.13 476.14 Z" fill="#efe1d6" stroke="#160A33" stroke-width="1"/>
<text x="925.13" y="493.45" transform="rotate(-3.75 925.13 493.45)" font-size="19" font-weight="400" fill="#160A33" text-anchor="middle" dominant-baseline="central" font-family="Outfit, Segoe UI, sans-serif">Expansive</text>
<path d="M 520.00 520.00 L 710.00 520.00 A 190.00 190.00 0 0 1 654.35 654.35 Z" fill="#7FD8E8" stroke="#160A33" stroke-width="2"/>
<text x="630.87" y="565.92" transform="rotate(22.50 630.87 565.92)" font-size="27" font-weight="600" fill="#160A33" text-anchor="middle" dominant-baseline="central" font-family="Outfit, Segoe UI, sans-serif">Peaceful</text>
<path d="M 856.00 520.00 A 336.00 336.00 0 0 1 844.55 606.96 L 703.53 569.18 A 190.00 190.00 0 0 0 710.00 520.00 Z" fill="#a6e0ed" stroke="#160A33" stroke-width="1.5"/>
<text x="780.75" y="554.33" transform="rotate(7.50 780.75 554.33)" font-size="21" font-weight="500" fill="#160A33" text-anchor="middle" dominant-baseline="central" font-family="Outfit, Segoe UI, sans-serif">Calm</text>
<path d="M 996.00 520.00 A 476.00 476.00 0 0 1 991.93 582.13 L 853.13 563.86 A 336.00 336.00 0 0 0 856.00 520.00 Z" fill="#c7e6f1" stroke="#160A33" stroke-width="1"/>
<text x="925.13" y="546.55" transform="rotate(3.75 925.13 546.55)" font-size="19" font-weight="400" fill="#160A33" text-anchor="middle" dominant-baseline="central" font-family="Outfit, Segoe UI, sans-serif">Settled</text>
<path d="M 991.93 582.13 A 476.00 476.00 0 0 1 979.78 643.20 L 844.55 606.96 A 336.00 336.00 0 0 0 853.13 563.86 Z" fill="#c7e6f1" stroke="#160A33" stroke-width="1"/>
<text x="918.20" y="599.21" transform="rotate(11.25 918.20 599.21)" font-size="19" font-weight="400" fill="#160A33" text-anchor="middle" dominant-baseline="central" font-family="Outfit, Segoe UI, sans-serif">Relaxed</text>
<path d="M 844.55 606.96 A 336.00 336.00 0 0 1 810.98 688.00 L 684.54 615.00 A 190.00 190.00 0 0 0 703.53 569.18 Z" fill="#a6e0ed" stroke="#160A33" stroke-width="1.5"/>
<text x="762.98" y="620.65" transform="rotate(22.50 762.98 620.65)" font-size="21" font-weight="500" fill="#160A33" text-anchor="middle" dominant-baseline="central" font-family="Outfit, Segoe UI, sans-serif">Safe</text>
<path d="M 979.78 643.20 A 476.00 476.00 0 0 1 959.77 702.16 L 830.42 648.58 A 336.00 336.00 0 0 0 844.55 606.96 Z" fill="#c7e6f1" stroke="#160A33" stroke-width="1"/>
<text x="904.45" y="650.50" transform="rotate(18.75 904.45 650.50)" font-size="19" font-weight="400" fill="#160A33" text-anchor="middle" dominant-baseline="central" font-family="Outfit, Segoe UI, sans-serif">Held</text>
<path d="M 959.77 702.16 A 476.00 476.00 0 0 1 932.23 758.00 L 810.98 688.00 A 336.00 336.00 0 0 0 830.42 648.58 Z" fill="#c7e6f1" stroke="#160A33" stroke-width="1"/>
<text x="884.13" y="699.57" transform="rotate(26.25 884.13 699.57)" font-size="19" font-weight="400" fill="#160A33" text-anchor="middle" dominant-baseline="central" font-family="Outfit, Segoe UI, sans-serif">Trusting</text>
<path d="M 810.98 688.00 A 336.00 336.00 0 0 1 757.59 757.59 L 654.35 654.35 A 190.00 190.00 0 0 0 684.54 615.00 Z" fill="#a6e0ed" stroke="#160A33" stroke-width="1.5"/>
<text x="728.65" y="680.10" transform="rotate(37.50 728.65 680.10)" font-size="21" font-weight="500" fill="#160A33" text-anchor="middle" dominant-baseline="central" font-family="Outfit, Segoe UI, sans-serif">Clear</text>
<path d="M 932.23 758.00 A 476.00 476.00 0 0 1 897.64 809.77 L 786.57 724.54 A 336.00 336.00 0 0 0 810.98 688.00 Z" fill="#c7e6f1" stroke="#160A33" stroke-width="1"/>
<text x="857.58" y="745.56" transform="rotate(33.75 857.58 745.56)" font-size="19" font-weight="400" fill="#160A33" text-anchor="middle" dominant-baseline="central" font-family="Outfit, Segoe UI, sans-serif">Focused</text>
<path d="M 897.64 809.77 A 476.00 476.00 0 0 1 856.58 856.58 L 757.59 757.59 A 336.00 336.00 0 0 0 786.57 724.54 Z" fill="#c7e6f1" stroke="#160A33" stroke-width="1"/>
<text x="825.25" y="787.69" transform="rotate(41.25 825.25 787.69)" font-size="19" font-weight="400" fill="#160A33" text-anchor="middle" dominant-baseline="central" font-family="Outfit, Segoe UI, sans-serif">Present</text>
<path d="M 520.00 520.00 L 654.35 654.35 A 190.00 190.00 0 0 1 520.00 710.00 Z" fill="#9B4FD0" stroke="#160A33" stroke-width="2"/>
<text x="565.92" y="630.87" transform="rotate(67.50 565.92 630.87)" font-size="27" font-weight="600" fill="#160A33" text-anchor="middle" dominant-baseline="central" font-family="Outfit, Segoe UI, sans-serif">Angry</text>
<path d="M 757.59 757.59 A 336.00 336.00 0 0 1 688.00 810.98 L 615.00 684.54 A 190.00 190.00 0 0 0 654.35 654.35 Z" fill="#b985dd" stroke="#160A33" stroke-width="1.5"/>
<text x="680.10" y="728.65" transform="rotate(52.50 680.10 728.65)" font-size="21" font-weight="500" fill="#160A33" text-anchor="middle" dominant-baseline="central" font-family="Outfit, Segoe UI, sans-serif">Frustrated</text>
<path d="M 856.58 856.58 A 476.00 476.00 0 0 1 809.77 897.64 L 724.54 786.57 A 336.00 336.00 0 0 0 757.59 757.59 Z" fill="#d2b2e8" stroke="#160A33" stroke-width="1"/>
<text x="787.69" y="825.25" transform="rotate(48.75 787.69 825.25)" font-size="19" font-weight="400" fill="#160A33" text-anchor="middle" dominant-baseline="central" font-family="Outfit, Segoe UI, sans-serif">Blocked</text>
<path d="M 809.77 897.64 A 476.00 476.00 0 0 1 758.00 932.23 L 688.00 810.98 A 336.00 336.00 0 0 0 724.54 786.57 Z" fill="#d2b2e8" stroke="#160A33" stroke-width="1"/>
<text x="745.56" y="857.58" transform="rotate(56.25 745.56 857.58)" font-size="19" font-weight="400" fill="#160A33" text-anchor="middle" dominant-baseline="central" font-family="Outfit, Segoe UI, sans-serif">Exasperated</text>
<path d="M 688.00 810.98 A 336.00 336.00 0 0 1 606.96 844.55 L 569.18 703.53 A 190.00 190.00 0 0 0 615.00 684.54 Z" fill="#b985dd" stroke="#160A33" stroke-width="1.5"/>
<text x="620.65" y="762.98" transform="rotate(67.50 620.65 762.98)" font-size="21" font-weight="500" fill="#160A33" text-anchor="middle" dominant-baseline="central" font-family="Outfit, Segoe UI, sans-serif">Resentful</text>
<path d="M 758.00 932.23 A 476.00 476.00 0 0 1 702.16 959.77 L 648.58 830.42 A 336.00 336.00 0 0 0 688.00 810.98 Z" fill="#d2b2e8" stroke="#160A33" stroke-width="1"/>
<text x="699.57" y="884.13" transform="rotate(63.75 699.57 884.13)" font-size="19" font-weight="400" fill="#160A33" text-anchor="middle" dominant-baseline="central" font-family="Outfit, Segoe UI, sans-serif">Bitter</text>
<path d="M 702.16 959.77 A 476.00 476.00 0 0 1 643.20 979.78 L 606.96 844.55 A 336.00 336.00 0 0 0 648.58 830.42 Z" fill="#d2b2e8" stroke="#160A33" stroke-width="1"/>
<text x="650.50" y="904.45" transform="rotate(71.25 650.50 904.45)" font-size="19" font-weight="400" fill="#160A33" text-anchor="middle" dominant-baseline="central" font-family="Outfit, Segoe UI, sans-serif">Betrayed</text>
<path d="M 606.96 844.55 A 336.00 336.00 0 0 1 520.00 856.00 L 520.00 710.00 A 190.00 190.00 0 0 0 569.18 703.53 Z" fill="#b985dd" stroke="#160A33" stroke-width="1.5"/>
<text x="554.33" y="780.75" transform="rotate(82.50 554.33 780.75)" font-size="21" font-weight="500" fill="#160A33" text-anchor="middle" dominant-baseline="central" font-family="Outfit, Segoe UI, sans-serif">Irritated</text>
<path d="M 643.20 979.78 A 476.00 476.00 0 0 1 582.13 991.93 L 563.86 853.13 A 336.00 336.00 0 0 0 606.96 844.55 Z" fill="#d2b2e8" stroke="#160A33" stroke-width="1"/>
<text x="599.21" y="918.20" transform="rotate(78.75 599.21 918.20)" font-size="19" font-weight="400" fill="#160A33" text-anchor="middle" dominant-baseline="central" font-family="Outfit, Segoe UI, sans-serif">Annoyed</text>
<path d="M 582.13 991.93 A 476.00 476.00 0 0 1 520.00 996.00 L 520.00 856.00 A 336.00 336.00 0 0 0 563.86 853.13 Z" fill="#d2b2e8" stroke="#160A33" stroke-width="1"/>
<text x="546.55" y="925.13" transform="rotate(86.25 546.55 925.13)" font-size="19" font-weight="400" fill="#160A33" text-anchor="middle" dominant-baseline="central" font-family="Outfit, Segoe UI, sans-serif">Impatient</text>
<path d="M 520.00 520.00 L 520.00 710.00 A 190.00 190.00 0 0 1 385.65 654.35 Z" fill="#6A63DC" stroke="#160A33" stroke-width="2"/>
<text x="474.08" y="630.87" transform="rotate(292.50 474.08 630.87)" font-size="27" font-weight="600" fill="#160A33" text-anchor="middle" dominant-baseline="central" font-family="Outfit, Segoe UI, sans-serif">Sad</text>
<path d="M 520.00 856.00 A 336.00 336.00 0 0 1 433.04 844.55 L 470.82 703.53 A 190.00 190.00 0 0 0 520.00 710.00 Z" fill="#9993e5" stroke="#160A33" stroke-width="1.5"/>
<text x="485.67" y="780.75" transform="rotate(277.50 485.67 780.75)" font-size="21" font-weight="500" fill="#160A33" text-anchor="middle" dominant-baseline="central" font-family="Outfit, Segoe UI, sans-serif">Lonely</text>
<path d="M 520.00 996.00 A 476.00 476.00 0 0 1 457.87 991.93 L 476.14 853.13 A 336.00 336.00 0 0 0 520.00 856.00 Z" fill="#bfbaed" stroke="#160A33" stroke-width="1"/>
<text x="493.45" y="925.13" transform="rotate(273.75 493.45 925.13)" font-size="19" font-weight="400" fill="#160A33" text-anchor="middle" dominant-baseline="central" font-family="Outfit, Segoe UI, sans-serif">Isolated</text>
<path d="M 457.87 991.93 A 476.00 476.00 0 0 1 396.80 979.78 L 433.04 844.55 A 336.00 336.00 0 0 0 476.14 853.13 Z" fill="#bfbaed" stroke="#160A33" stroke-width="1"/>
<text x="440.79" y="918.20" transform="rotate(281.25 440.79 918.20)" font-size="19" font-weight="400" fill="#160A33" text-anchor="middle" dominant-baseline="central" font-family="Outfit, Segoe UI, sans-serif">Abandoned</text>
<path d="M 433.04 844.55 A 336.00 336.00 0 0 1 352.00 810.98 L 425.00 684.54 A 190.00 190.00 0 0 0 470.82 703.53 Z" fill="#9993e5" stroke="#160A33" stroke-width="1.5"/>
<text x="419.35" y="762.98" transform="rotate(292.50 419.35 762.98)" font-size="21" font-weight="500" fill="#160A33" text-anchor="middle" dominant-baseline="central" font-family="Outfit, Segoe UI, sans-serif">Disappointed</text>
<path d="M 396.80 979.78 A 476.00 476.00 0 0 1 337.84 959.77 L 391.42 830.42 A 336.00 336.00 0 0 0 433.04 844.55 Z" fill="#bfbaed" stroke="#160A33" stroke-width="1"/>
<text x="389.50" y="904.45" transform="rotate(288.75 389.50 904.45)" font-size="19" font-weight="400" fill="#160A33" text-anchor="middle" dominant-baseline="central" font-family="Outfit, Segoe UI, sans-serif">Let down</text>
<path d="M 337.84 959.77 A 476.00 476.00 0 0 1 282.00 932.23 L 352.00 810.98 A 336.00 336.00 0 0 0 391.42 830.42 Z" fill="#bfbaed" stroke="#160A33" stroke-width="1"/>
<text x="340.43" y="884.13" transform="rotate(296.25 340.43 884.13)" font-size="19" font-weight="400" fill="#160A33" text-anchor="middle" dominant-baseline="central" font-family="Outfit, Segoe UI, sans-serif">Deflated</text>
<path d="M 352.00 810.98 A 336.00 336.00 0 0 1 282.41 757.59 L 385.65 654.35 A 190.00 190.00 0 0 0 425.00 684.54 Z" fill="#9993e5" stroke="#160A33" stroke-width="1.5"/>
<text x="359.90" y="728.65" transform="rotate(307.50 359.90 728.65)" font-size="21" font-weight="500" fill="#160A33" text-anchor="middle" dominant-baseline="central" font-family="Outfit, Segoe UI, sans-serif">Grieving</text>
<path d="M 282.00 932.23 A 476.00 476.00 0 0 1 230.23 897.64 L 315.46 786.57 A 336.00 336.00 0 0 0 352.00 810.98 Z" fill="#bfbaed" stroke="#160A33" stroke-width="1"/>
<text x="294.44" y="857.58" transform="rotate(303.75 294.44 857.58)" font-size="19" font-weight="400" fill="#160A33" text-anchor="middle" dominant-baseline="central" font-family="Outfit, Segoe UI, sans-serif">Heartbroken</text>
<path d="M 230.23 897.64 A 476.00 476.00 0 0 1 183.42 856.58 L 282.41 757.59 A 336.00 336.00 0 0 0 315.46 786.57 Z" fill="#bfbaed" stroke="#160A33" stroke-width="1"/>
<text x="252.31" y="825.25" transform="rotate(311.25 252.31 825.25)" font-size="19" font-weight="400" fill="#160A33" text-anchor="middle" dominant-baseline="central" font-family="Outfit, Segoe UI, sans-serif">Empty</text>
<path d="M 520.00 520.00 L 385.65 654.35 A 190.00 190.00 0 0 1 330.00 520.00 Z" fill="#4F79D8" stroke="#160A33" stroke-width="2"/>
<text x="409.13" y="565.92" transform="rotate(337.50 409.13 565.92)" font-size="27" font-weight="600" fill="#160A33" text-anchor="middle" dominant-baseline="central" font-family="Outfit, Segoe UI, sans-serif">Scared</text>
<path d="M 282.41 757.59 A 336.00 336.00 0 0 1 229.02 688.00 L 355.46 615.00 A 190.00 190.00 0 0 0 385.65 654.35 Z" fill="#87a1e3" stroke="#160A33" stroke-width="1.5"/>
<text x="311.35" y="680.10" transform="rotate(322.50 311.35 680.10)" font-size="21" font-weight="500" fill="#160A33" text-anchor="middle" dominant-baseline="central" font-family="Outfit, Segoe UI, sans-serif">Anxious</text>
<path d="M 183.42 856.58 A 476.00 476.00 0 0 1 142.36 809.77 L 253.43 724.54 A 336.00 336.00 0 0 0 282.41 757.59 Z" fill="#b5c2eb" stroke="#160A33" stroke-width="1"/>
<text x="214.75" y="787.69" transform="rotate(318.75 214.75 787.69)" font-size="19" font-weight="400" fill="#160A33" text-anchor="middle" dominant-baseline="central" font-family="Outfit, Segoe UI, sans-serif">Restless</text>
<path d="M 142.36 809.77 A 476.00 476.00 0 0 1 107.77 758.00 L 229.02 688.00 A 336.00 336.00 0 0 0 253.43 724.54 Z" fill="#b5c2eb" stroke="#160A33" stroke-width="1"/>
<text x="182.42" y="745.56" transform="rotate(326.25 182.42 745.56)" font-size="19" font-weight="400" fill="#160A33" text-anchor="middle" dominant-baseline="central" font-family="Outfit, Segoe UI, sans-serif">Overwhelmed</text>
<path d="M 229.02 688.00 A 336.00 336.00 0 0 1 195.45 606.96 L 336.47 569.18 A 190.00 190.00 0 0 0 355.46 615.00 Z" fill="#87a1e3" stroke="#160A33" stroke-width="1.5"/>
<text x="277.02" y="620.65" transform="rotate(337.50 277.02 620.65)" font-size="21" font-weight="500" fill="#160A33" text-anchor="middle" dominant-baseline="central" font-family="Outfit, Segoe UI, sans-serif">Insecure</text>
<path d="M 107.77 758.00 A 476.00 476.00 0 0 1 80.23 702.16 L 209.58 648.58 A 336.00 336.00 0 0 0 229.02 688.00 Z" fill="#b5c2eb" stroke="#160A33" stroke-width="1"/>
<text x="155.87" y="699.57" transform="rotate(333.75 155.87 699.57)" font-size="19" font-weight="400" fill="#160A33" text-anchor="middle" dominant-baseline="central" font-family="Outfit, Segoe UI, sans-serif">Inadequate</text>
<path d="M 80.23 702.16 A 476.00 476.00 0 0 1 60.22 643.20 L 195.45 606.96 A 336.00 336.00 0 0 0 209.58 648.58 Z" fill="#b5c2eb" stroke="#160A33" stroke-width="1"/>
<text x="135.55" y="650.50" transform="rotate(341.25 135.55 650.50)" font-size="19" font-weight="400" fill="#160A33" text-anchor="middle" dominant-baseline="central" font-family="Outfit, Segoe UI, sans-serif">Exposed</text>
<path d="M 195.45 606.96 A 336.00 336.00 0 0 1 184.00 520.00 L 330.00 520.00 A 190.00 190.00 0 0 0 336.47 569.18 Z" fill="#87a1e3" stroke="#160A33" stroke-width="1.5"/>
<text x="259.25" y="554.33" transform="rotate(352.50 259.25 554.33)" font-size="21" font-weight="500" fill="#160A33" text-anchor="middle" dominant-baseline="central" font-family="Outfit, Segoe UI, sans-serif">Threatened</text>
<path d="M 60.22 643.20 A 476.00 476.00 0 0 1 48.07 582.13 L 186.87 563.86 A 336.00 336.00 0 0 0 195.45 606.96 Z" fill="#b5c2eb" stroke="#160A33" stroke-width="1"/>
<text x="121.80" y="599.21" transform="rotate(348.75 121.80 599.21)" font-size="19" font-weight="400" fill="#160A33" text-anchor="middle" dominant-baseline="central" font-family="Outfit, Segoe UI, sans-serif">Trapped</text>
<path d="M 48.07 582.13 A 476.00 476.00 0 0 1 44.00 520.00 L 184.00 520.00 A 336.00 336.00 0 0 0 186.87 563.86 Z" fill="#b5c2eb" stroke="#160A33" stroke-width="1"/>
<text x="114.87" y="546.55" transform="rotate(356.25 114.87 546.55)" font-size="19" font-weight="400" fill="#160A33" text-anchor="middle" dominant-baseline="central" font-family="Outfit, Segoe UI, sans-serif">Helpless</text>
<path d="M 520.00 520.00 L 330.00 520.00 A 190.00 190.00 0 0 1 385.65 385.65 Z" fill="#7A52C2" stroke="#160A33" stroke-width="2"/>
<text x="409.13" y="474.08" transform="rotate(382.50 409.13 474.08)" font-size="27" font-weight="600" fill="#160A33" text-anchor="middle" dominant-baseline="central" font-family="Outfit, Segoe UI, sans-serif">Ashamed</text>
<path d="M 184.00 520.00 A 336.00 336.00 0 0 1 195.45 433.04 L 336.47 470.82 A 190.00 190.00 0 0 0 330.00 520.00 Z" fill="#a387d4" stroke="#160A33" stroke-width="1.5"/>
<text x="259.25" y="485.67" transform="rotate(367.50 259.25 485.67)" font-size="21" font-weight="500" fill="#160A33" text-anchor="middle" dominant-baseline="central" font-family="Outfit, Segoe UI, sans-serif">Guilty</text>
<path d="M 44.00 520.00 A 476.00 476.00 0 0 1 48.07 457.87 L 186.87 476.14 A 336.00 336.00 0 0 0 184.00 520.00 Z" fill="#c5b3e3" stroke="#160A33" stroke-width="1"/>
<text x="114.87" y="493.45" transform="rotate(363.75 114.87 493.45)" font-size="19" font-weight="400" fill="#160A33" text-anchor="middle" dominant-baseline="central" font-family="Outfit, Segoe UI, sans-serif">Remorseful</text>
<path d="M 48.07 457.87 A 476.00 476.00 0 0 1 60.22 396.80 L 195.45 433.04 A 336.00 336.00 0 0 0 186.87 476.14 Z" fill="#c5b3e3" stroke="#160A33" stroke-width="1"/>
<text x="121.80" y="440.79" transform="rotate(371.25 121.80 440.79)" font-size="19" font-weight="400" fill="#160A33" text-anchor="middle" dominant-baseline="central" font-family="Outfit, Segoe UI, sans-serif">Regretful</text>
<path d="M 195.45 433.04 A 336.00 336.00 0 0 1 229.02 352.00 L 355.46 425.00 A 190.00 190.00 0 0 0 336.47 470.82 Z" fill="#a387d4" stroke="#160A33" stroke-width="1.5"/>
<text x="277.02" y="419.35" transform="rotate(382.50 277.02 419.35)" font-size="21" font-weight="500" fill="#160A33" text-anchor="middle" dominant-baseline="central" font-family="Outfit, Segoe UI, sans-serif">Embarrassed</text>
<path d="M 60.22 396.80 A 476.00 476.00 0 0 1 80.23 337.84 L 209.58 391.42 A 336.00 336.00 0 0 0 195.45 433.04 Z" fill="#c5b3e3" stroke="#160A33" stroke-width="1"/>
<text x="135.55" y="389.50" transform="rotate(378.75 135.55 389.50)" font-size="19" font-weight="400" fill="#160A33" text-anchor="middle" dominant-baseline="central" font-family="Outfit, Segoe UI, sans-serif">Self-conscious</text>
<path d="M 80.23 337.84 A 476.00 476.00 0 0 1 107.77 282.00 L 229.02 352.00 A 336.00 336.00 0 0 0 209.58 391.42 Z" fill="#c5b3e3" stroke="#160A33" stroke-width="1"/>
<text x="155.87" y="340.43" transform="rotate(386.25 155.87 340.43)" font-size="19" font-weight="400" fill="#160A33" text-anchor="middle" dominant-baseline="central" font-family="Outfit, Segoe UI, sans-serif">Foolish</text>
<path d="M 229.02 352.00 A 336.00 336.00 0 0 1 282.41 282.41 L 385.65 385.65 A 190.00 190.00 0 0 0 355.46 425.00 Z" fill="#a387d4" stroke="#160A33" stroke-width="1.5"/>
<text x="311.35" y="359.90" transform="rotate(397.50 311.35 359.90)" font-size="21" font-weight="500" fill="#160A33" text-anchor="middle" dominant-baseline="central" font-family="Outfit, Segoe UI, sans-serif">Small</text>
<path d="M 107.77 282.00 A 476.00 476.00 0 0 1 142.36 230.23 L 253.43 315.46 A 336.00 336.00 0 0 0 229.02 352.00 Z" fill="#c5b3e3" stroke="#160A33" stroke-width="1"/>
<text x="182.42" y="294.44" transform="rotate(393.75 182.42 294.44)" font-size="19" font-weight="400" fill="#160A33" text-anchor="middle" dominant-baseline="central" font-family="Outfit, Segoe UI, sans-serif">Inferior</text>
<path d="M 142.36 230.23 A 476.00 476.00 0 0 1 183.42 183.42 L 282.41 282.41 A 336.00 336.00 0 0 0 253.43 315.46 Z" fill="#c5b3e3" stroke="#160A33" stroke-width="1"/>
<text x="214.75" y="252.31" transform="rotate(401.25 214.75 252.31)" font-size="19" font-weight="400" fill="#160A33" text-anchor="middle" dominant-baseline="central" font-family="Outfit, Segoe UI, sans-serif">Unwanted</text>
<path d="M 520.00 520.00 L 385.65 385.65 A 190.00 190.00 0 0 1 520.00 330.00 Z" fill="#8A63A8" stroke="#160A33" stroke-width="2"/>
<text x="474.08" y="409.13" transform="rotate(427.50 474.08 409.13)" font-size="27" font-weight="600" fill="#160A33" text-anchor="middle" dominant-baseline="central" font-family="Outfit, Segoe UI, sans-serif">Disgusted</text>
<path d="M 282.41 282.41 A 336.00 336.00 0 0 1 352.00 229.02 L 425.00 355.46 A 190.00 190.00 0 0 0 385.65 385.65 Z" fill="#ae93c3" stroke="#160A33" stroke-width="1.5"/>
<text x="359.90" y="311.35" transform="rotate(412.50 359.90 311.35)" font-size="21" font-weight="500" fill="#160A33" text-anchor="middle" dominant-baseline="central" font-family="Outfit, Segoe UI, sans-serif">Repelled</text>
<path d="M 183.42 183.42 A 476.00 476.00 0 0 1 230.23 142.36 L 315.46 253.43 A 336.00 336.00 0 0 0 282.41 282.41 Z" fill="#cbbad9" stroke="#160A33" stroke-width="1"/>
<text x="252.31" y="214.75" transform="rotate(408.75 252.31 214.75)" font-size="19" font-weight="400" fill="#160A33" text-anchor="middle" dominant-baseline="central" font-family="Outfit, Segoe UI, sans-serif">Revolted</text>
<path d="M 230.23 142.36 A 476.00 476.00 0 0 1 282.00 107.77 L 352.00 229.02 A 336.00 336.00 0 0 0 315.46 253.43 Z" fill="#cbbad9" stroke="#160A33" stroke-width="1"/>
<text x="294.44" y="182.42" transform="rotate(416.25 294.44 182.42)" font-size="19" font-weight="400" fill="#160A33" text-anchor="middle" dominant-baseline="central" font-family="Outfit, Segoe UI, sans-serif">Sickened</text>
<path d="M 352.00 229.02 A 336.00 336.00 0 0 1 433.04 195.45 L 470.82 336.47 A 190.00 190.00 0 0 0 425.00 355.46 Z" fill="#ae93c3" stroke="#160A33" stroke-width="1.5"/>
<text x="419.35" y="277.02" transform="rotate(427.50 419.35 277.02)" font-size="21" font-weight="500" fill="#160A33" text-anchor="middle" dominant-baseline="central" font-family="Outfit, Segoe UI, sans-serif">Disapproving</text>
<path d="M 282.00 107.77 A 476.00 476.00 0 0 1 337.84 80.23 L 391.42 209.58 A 336.00 336.00 0 0 0 352.00 229.02 Z" fill="#cbbad9" stroke="#160A33" stroke-width="1"/>
<text x="340.43" y="155.87" transform="rotate(423.75 340.43 155.87)" font-size="19" font-weight="400" fill="#160A33" text-anchor="middle" dominant-baseline="central" font-family="Outfit, Segoe UI, sans-serif">Critical</text>
<path d="M 337.84 80.23 A 476.00 476.00 0 0 1 396.80 60.22 L 433.04 195.45 A 336.00 336.00 0 0 0 391.42 209.58 Z" fill="#cbbad9" stroke="#160A33" stroke-width="1"/>
<text x="389.50" y="135.55" transform="rotate(431.25 389.50 135.55)" font-size="19" font-weight="400" fill="#160A33" text-anchor="middle" dominant-baseline="central" font-family="Outfit, Segoe UI, sans-serif">Dismissive</text>
<path d="M 433.04 195.45 A 336.00 336.00 0 0 1 520.00 184.00 L 520.00 330.00 A 190.00 190.00 0 0 0 470.82 336.47 Z" fill="#ae93c3" stroke="#160A33" stroke-width="1.5"/>
<text x="485.67" y="259.25" transform="rotate(442.50 485.67 259.25)" font-size="21" font-weight="500" fill="#160A33" text-anchor="middle" dominant-baseline="central" font-family="Outfit, Segoe UI, sans-serif">Withdrawn</text>
<path d="M 396.80 60.22 A 476.00 476.00 0 0 1 457.87 48.07 L 476.14 186.87 A 336.00 336.00 0 0 0 433.04 195.45 Z" fill="#cbbad9" stroke="#160A33" stroke-width="1"/>
<text x="440.79" y="121.80" transform="rotate(438.75 440.79 121.80)" font-size="19" font-weight="400" fill="#160A33" text-anchor="middle" dominant-baseline="central" font-family="Outfit, Segoe UI, sans-serif">Numb</text>
<path d="M 457.87 48.07 A 476.00 476.00 0 0 1 520.00 44.00 L 520.00 184.00 A 336.00 336.00 0 0 0 476.14 186.87 Z" fill="#cbbad9" stroke="#160A33" stroke-width="1"/>
<text x="493.45" y="114.87" transform="rotate(446.25 493.45 114.87)" font-size="19" font-weight="400" fill="#160A33" text-anchor="middle" dominant-baseline="central" font-family="Outfit, Segoe UI, sans-serif">Detached</text>
<circle cx="520" cy="520" r="50" fill="#160A33" stroke="#F3EFF7" stroke-opacity="0.25" stroke-width="1.5"/>
<text x="520" y="511" text-anchor="middle" font-size="15" fill="#F3EFF7" font-family="Fraunces, Georgia, serif" font-style="italic">the</text>
<text x="520" y="533" text-anchor="middle" font-size="17" fill="#E8CBA0" font-family="Fraunces, Georgia, serif" font-style="italic">wheel</text>
<text x="520" y="1024" text-anchor="middle" font-size="13" fill="#F3EFF7" fill-opacity="0.5" font-family="Outfit, Segoe UI, sans-serif">thechampagnemethod.co</text>
</svg>